{
	"asset":{
		"generator":"Khronos glTF Blender I/O v3.5.30",
		"version":"2.0"
	},
	"extensionsUsed":[
		"KHR_materials_transmission",
		"KHR_materials_specular",
		"KHR_materials_ior"
	],
	"scene":0,
	"scenes":[
		{
			"name":"Scene",
			"nodes":[
				8
			]
		}
	],
	"nodes":[
		{
			"mesh":0,
			"name":"Glasses_Glasses1_0",
			"translation":[
				-0.19055134057998657,
				-3.9922549724578857,
				-14.003341674804688
			]
		},
		{
			"mesh":1,
			"name":"Glasses_Glasses2_0",
			"translation":[
				-0.19055134057998657,
				-3.9922549724578857,
				-14.003341674804688
			]
		},
		{
			"mesh":2,
			"name":"Glasses_Lenses_0",
			"translation":[
				-0.19055134057998657,
				-3.9922549724578857,
				-14.003341674804688
			]
		},
		{
			"children":[
				0,
				1,
				2
			],
			"name":"Glasses",
			"rotation":[
				-0.7069365382194519,
				-0.015514974482357502,
				0.015514968894422054,
				0.7069365382194519
			],
			"scale":[
				0.503760814666748,
				0.503760814666748,
				0.503760814666748
			],
			"translation":[
				0.28038275241851807,
				-4.1160759925842285,
				-2.0111427307128906
			]
		},
		{
			"name":"NOSE_TIP",
			"translation":[
				0,
				-0.46300026774406433,
				-7.586580276489258
			]
		},
		{
			"name":"FOREHEAD_RIGHT",
			"rotation":[
				0.14623038470745087,
				-0.27242934703826904,
				0.0419309064745903,
				0.9500740766525269
			],
			"scale":[
				1,
				0.9999998211860657,
				0.9999998807907104
			],
			"translation":[
				3.7089998722076416,
				6.964000701904297,
				-3.980999708175659
			]
		},
		{
			"name":"FOREHEAD_LEFT",
			"rotation":[
				0.14623038470745087,
				0.27242937684059143,
				-0.04193089157342911,
				0.9500740766525269
			],
			"translation":[
				-3.7089998722076416,
				6.964010715484619,
				-3.980999708175659
			]
		},
		{
			"children":[
				4,
				5,
				6
			],
			"name":"root",
			"rotation":[
				-0.7071067690849304,
				0,
				0,
				0.7071067690849304
			]
		},
		{
			"children":[
				3,
				7
			],
			"name":"asset",
			"rotation":[
				0.7071068286895752,
				0,
				0,
				0.7071068286895752
			],
			"scale":[
				0.009999999776482582,
				0.009999999776482582,
				0.009999999776482582
			]
		}
	],
	"materials":[
		{
			"doubleSided":true,
			"name":"Glasses1",
			"pbrMetallicRoughness":{
				"baseColorFactor":[
					0.018499674275517464,
					0.3049870729446411,
					0.49693289399147034,
					1
				],
				"metallicFactor":0,
				"roughnessFactor":0.5
			}
		},
		{
			"doubleSided":true,
			"name":"Glasses2",
			"pbrMetallicRoughness":{
				"baseColorFactor":[
					0.018499674275517464,
					0.3049870729446411,
					0.49693289399147034,
					1
				],
				"metallicFactor":0,
				"roughnessFactor":0.5
			}
		},
		{
			"alphaMode":"BLEND",
			"doubleSided":true,
			"extensions":{
				"KHR_materials_transmission":{
					"transmissionFactor":1
				},
				"KHR_materials_specular":{
					"specularColorFactor":[
						1,
						1,
						1
					]
				},
				"KHR_materials_ior":{
					"ior":1.4500000476837158
				}
			},
			"name":"Lenses",
			"pbrMetallicRoughness":{
				"baseColorFactor":[
					0,
					0,
					0,
					0.5
				],
				"metallicFactor":0,
				"roughnessFactor":0
			}
		}
	],
	"meshes":[
		{
			"name":"Glasses_Glasses1_0",
			"primitives":[
				{
					"attributes":{
						"POSITION":0,
						"TEXCOORD_0":1,
						"NORMAL":2
					},
					"indices":3,
					"material":0
				}
			]
		},
		{
			"name":"Glasses_Glasses2_0",
			"primitives":[
				{
					"attributes":{
						"POSITION":4,
						"TEXCOORD_0":5,
						"NORMAL":6
					},
					"indices":7,
					"material":1
				}
			]
		},
		{
			"name":"Glasses_Lenses_0",
			"primitives":[
				{
					"attributes":{
						"POSITION":8,
						"TEXCOORD_0":9,
						"NORMAL":10
					},
					"indices":11,
					"material":2
				}
			]
		}
	],
	"skins":[
		{
			"inverseBindMatrices":12,
			"joints":[
				7,
				4,
				5,
				6
			],
			"name":"asset"
		}
	],
	"accessors":[
		{
			"bufferView":0,
			"componentType":5126,
			"count":604,
			"max":[
				15.485556602478027,
				9.977660179138184,
				13.35549545288086
			],
			"min":[
				-15.104453086853027,
				0.4100935459136963,
				8.605241775512695
			],
			"type":"VEC3"
		},
		{
			"bufferView":1,
			"componentType":5126,
			"count":604,
			"type":"VEC2"
		},
		{
			"bufferView":2,
			"componentType":5126,
			"count":604,
			"type":"VEC3"
		},
		{
			"bufferView":3,
			"componentType":5123,
			"count":1812,
			"type":"SCALAR"
		},
		{
			"bufferView":4,
			"componentType":5126,
			"count":248,
			"max":[
				15.780488967895508,
				9.311324119567871,
				9.922072410583496
			],
			"min":[
				-15.399389266967773,
				1.252897024154663,
				-21.521343231201172
			],
			"type":"VEC3"
		},
		{
			"bufferView":5,
			"componentType":5126,
			"count":248,
			"type":"VEC2"
		},
		{
			"bufferView":6,
			"componentType":5126,
			"count":248,
			"type":"VEC3"
		},
		{
			"bufferView":7,
			"componentType":5123,
			"count":648,
			"type":"SCALAR"
		},
		{
			"bufferView":8,
			"componentType":5126,
			"count":132,
			"max":[
				14.007474899291992,
				9.459957122802734,
				13.050562858581543
			],
			"min":[
				-13.626373291015625,
				0.9527313709259033,
				10.181070327758789
			],
			"type":"VEC3"
		},
		{
			"bufferView":9,
			"componentType":5126,
			"count":132,
			"type":"VEC2"
		},
		{
			"bufferView":10,
			"componentType":5126,
			"count":132,
			"type":"VEC3"
		},
		{
			"bufferView":11,
			"componentType":5123,
			"count":552,
			"type":"SCALAR"
		},
		{
			"bufferView":12,
			"componentType":5126,
			"count":4,
			"type":"MAT4"
		}
	],
	"bufferViews":[
		{
			"buffer":0,
			"byteLength":7248,
			"byteOffset":0,
			"target":34962
		},
		{
			"buffer":0,
			"byteLength":4832,
			"byteOffset":7248,
			"target":34962
		},
		{
			"buffer":0,
			"byteLength":7248,
			"byteOffset":12080,
			"target":34962
		},
		{
			"buffer":0,
			"byteLength":3624,
			"byteOffset":19328,
			"target":34963
		},
		{
			"buffer":0,
			"byteLength":2976,
			"byteOffset":22952,
			"target":34962
		},
		{
			"buffer":0,
			"byteLength":1984,
			"byteOffset":25928,
			"target":34962
		},
		{
			"buffer":0,
			"byteLength":2976,
			"byteOffset":27912,
			"target":34962
		},
		{
			"buffer":0,
			"byteLength":1296,
			"byteOffset":30888,
			"target":34963
		},
		{
			"buffer":0,
			"byteLength":1584,
			"byteOffset":32184,
			"target":34962
		},
		{
			"buffer":0,
			"byteLength":1056,
			"byteOffset":33768,
			"target":34962
		},
		{
			"buffer":0,
			"byteLength":1584,
			"byteOffset":34824,
			"target":34962
		},
		{
			"buffer":0,
			"byteLength":1104,
			"byteOffset":36408,
			"target":34963
		},
		{
			"buffer":0,
			"byteLength":256,
			"byteOffset":37512
		}
	],
	"buffers":[
		{
			"byteLength":37768,
			"uri":"data:application/octet-stream;base64,"
		}
	]
}
